<?xml version="1.0" encoding="UTF-8"?>
<!-- Generator: Adobe Illustrator 28.0.0, SVG Export Plug-In . SVG Version: 6.00 Build 0)  -->
<svg xmlns="http://www.w3.org/2000/svg" xmlns:xlink="http://www.w3.org/1999/xlink" version="1.1" id="Layer_2" x="0px" y="0px" viewBox="0 0 220 78.4608765" style="enable-background:new 0 0 220 78.4608765;" xml:space="preserve">
<style type="text/css">
	.st0{fill:#FA6B42;}
	.st1{fill:#C7212E;}
	.st2{fill:#1F2B42;}
</style>
<g id="Layer_1-2">
	<path class="st0" d="M25.5519676,73.6711426l6.6955452,3.8670807c2.1326904,1.2302017,4.7594833,1.2302017,6.8921738,0   l26.7922516-15.4683228c2.1326904-1.2302055,3.4435654-3.5040665,3.4435654-5.9644775v-9.1408272   C69.3755035,46.9645958,25.5519638,73.6711426,25.5519676,73.6711426z"></path>
	<path class="st1" d="M64.6614075,37.4204254L21.347086,12.7003574c-0.3125916-0.1764641-0.6957722-0.1764641-1.0083637,0l0,0   c-0.3125935,0.1815052-0.5041828,0.514266-0.5041828,0.8772774v51.3056107c0,0.3630066,0.1915894,0.6957703,0.5041828,0.8772812   l0.05546,0.0302505c0.3226757,0.1865387,0.7159386,0.1815033,1.0335732-0.0100861L64.686615,39.4169884   c0.3025131-0.1815071,0.4840164-0.5092278,0.4840164-0.8671951v-0.2520905c0-0.3630142-0.1966324-0.7008133-0.5092163-0.8772774   H64.6614075z"></path>
	<path class="st0" d="M69.3704681,29.7921429v-7.4366913c0-2.4604111-1.3108826-4.7342739-3.4435654-5.9644775L39.1346474,0.922654   c-2.1326942-1.2302053-4.7594872-1.2302053-6.8921738,0l-6.6905041,3.8620379L69.3654251,29.792141L69.3704681,29.7921429z"></path>
	<path class="st0" d="M10.5928745,13.2095814l-7.3358555,4.5527668C1.235247,19.0177631,0,21.2311249,0,23.6159077v31.229063   c0,2.3847847,1.2302053,4.5981445,3.2570188,5.8535576l7.3358555,4.5527687V13.2095814z"></path>
	<g>
		<g>
			<path class="st2" d="M86.5227585,12.044919c0-0.3781366,0.3025131-0.7159386,0.7159348-0.7159386h8.853447     c4.6334381,0,8.4400177,3.766242,8.4400177,8.3240519s-3.8015366,8.4753094-8.3996811,8.4753094h-4.7090683v8.8534431     c0,0.3781357-0.3377991,0.7159386-0.7159348,0.7159386h-3.4687805c-0.4134293,0-0.7159348-0.3378029-0.7159348-0.7159386     V12.044919z M95.7896347,23.5352383c2.1074753,0,3.8822021-1.6940536,3.8822021-3.9174976     c0-2.0721912-1.7696762-3.655323-3.8822021-3.655323h-4.3712616v7.5728207H95.7896347z"></path>
			<path class="st2" d="M103.9271393,36.7196121l11.7172012-25.350296c0.1159592-0.2268829,0.3025131-0.4134302,0.6403122-0.4134302     h0.3781433c0.3730927,0,0.5293884,0.1865482,0.6403122,0.4134302l11.6012344,25.350296     c0.2268829,0.4890556-0.0756226,0.9781151-0.6403198,0.9781151h-3.2771835c-0.564682,0-0.8268585-0.2268829-1.0940704-0.7512321     l-1.845314-4.0687523h-11.2634354l-1.8453064,4.0687523c-0.1512527,0.3781395-0.4890594,0.7512321-1.0940781,0.7512321     h-3.2771835C104.0027695,37.6977272,103.7002563,37.2086678,103.9271393,36.7196121z M120.2021484,28.6980686     l-3.766243-8.2887592h-0.1109238l-3.6906204,8.2887611h7.5728226L120.2021484,28.6980686z"></path>
			<path class="st2" d="M143.8180542,10.9508429c3.8015442,0,6.5543671,1.2049961,9.1156158,3.5040684     c0.3377991,0.3025093,0.3377991,0.7512312,0.0352936,1.0537415l-2.2990723,2.3746996     c-0.2621613,0.3025074-0.6403046,0.3025074-0.9428253,0c-1.5831299-1.3915443-3.6906128-2.2234459-5.8031311-2.2234459     c-4.8199921,0-8.3996887,4.0334606-8.3996887,8.7778168s3.6149902,8.7021885,8.4400024,8.7021885     c2.2587433,0,4.1796875-0.8671951,5.7628021-2.1478176c0.3025208-0.2621746,0.7159576-0.2268829,0.9428253,0l2.3343658,2.4099903     c0.3025208,0.2621765,0.2268829,0.7562752-0.040329,1.0184479c-2.5612335,2.4856186-5.7980957,3.655323-9.1509094,3.655323     c-7.532486,0-13.5977936-5.9896889-13.5977936-13.5221729s6.0653076-13.5978022,13.5977936-13.5978022L143.8180542,10.9508429z"></path>
			<path class="st2" d="M157.9099579,12.2314672c0-0.4890566,0.3730927-0.9024858,0.9024963-0.9024858h3.3124847     c0.4890594,0,0.9024811,0.4134293,0.9024811,0.9024868v10.1693592l9.4937592-10.6987514     c0.1512451-0.1865482,0.3781281-0.3781366,0.7159424-0.3781366h3.7662354c0.7159576,0,1.0940857,0.7915659,0.6050262,1.3562508     l-9.8315582,11.071847l10.5475159,12.6196861c0.3781281,0.4890594,0.0756226,1.315918-0.6806488,1.315918h-4.1040649     c-0.3781281,0-0.6050262-0.1512566-0.6806488-0.2621727L163.02742,25.294838v11.4903183     c0,0.4890594-0.4134216,0.9024887-0.9024811,0.9024887h-3.3124847c-0.5293884,0-0.9024963-0.4134293-0.9024963-0.9024887     V12.2314672z"></path>
			<path class="st2" d="M182.4737396,12.044919c0-0.3781366,0.3025055-0.7159386,0.7159424-0.7159386h15.3321838     c0.4134369,0,0.7159424,0.3378019,0.7159424,0.7159386v3.0906391c0,0.3781376-0.3025055,0.7159395-0.7159424,0.7159395     h-11.1525116v6.1762371h9.3072052c0.3730927,0,0.7159424,0.337801,0.7159424,0.7159367v3.1259327     c0,0.4134293-0.3377991,0.7159386-0.7159424,0.7159386h-9.3072052v6.5896664h11.1525116     c0.4134369,0,0.7159424,0.3378029,0.7159424,0.7159386v3.0906372c0,0.3781357-0.3025055,0.7159386-0.7159424,0.7159386     H183.189682c-0.4134369,0-0.7159424-0.3378029-0.7159424-0.7159386V12.044919z"></path>
			<path class="st2" d="M208.1668701,15.8514977h-5.7628021c-0.4134369,0-0.7159424-0.3378019-0.7159424-0.7159395V12.044919     c0-0.3781366,0.3025055-0.7159386,0.7159424-0.7159386h16.4615479c0.4134369,0,0.7159576,0.3378019,0.7159576,0.7159386     v3.0906391c0,0.3781376-0.3025208,0.7159395-0.7159576,0.7159395h-5.7628021v21.1302872     c0,0.3781357-0.3377991,0.7159386-0.7159424,0.7159386h-3.5040741c-0.3730927,0-0.7159424-0.3378029-0.7159424-0.7159386     V15.8514977H208.1668701z"></path>
		</g>
		<g>
			<path class="st2" d="M94.8518524,44.1663857h-7.2753448c-0.4285583,0-0.7814865,0.3529243-0.7814865,0.7814827V65.437851     c0,0.4335938,0.3529282,0.7814789,0.7814865,0.7814789h2.8486252c0.4184723,0,0.7814865-0.3630066,0.7814865-0.7814789V58.359127     h3.6754837c3.9124527,0,7.0988922-3.2116432,7.0988922-7.1593895s-3.1965179-7.0333443-7.1240997-7.0333443     L94.8518524,44.1663857z M97.5996475,51.1694794c0,1.6688423-1.3461685,3.0250931-2.9948425,3.0250931h-3.3931503v-5.8333893     h3.3931503C96.258522,48.3611832,97.5996475,49.6216393,97.5996475,51.1694794z"></path>
			<path class="st2" d="M121.6592331,44.1663857h-2.9393845c-0.4285583,0-0.7814789,0.3529243-0.7814789,0.7814827v12.6902733     c0,2.5965424-1.8200989,4.4771385-4.3258896,4.4771385s-4.2905884-1.8957253-4.2905884-4.5124321V44.9428253     c0-0.4335976-0.3529282-0.7814827-0.7814865-0.7814827h-2.9393845c-0.4184723,0-0.7814865,0.3630104-0.7814865,0.7814827     v12.8768234c0,4.8804855,3.8670807,8.7072296,8.7979813,8.7072296c4.9309082,0,8.8282318-3.8217049,8.8282318-8.7072334     V44.9428215c0-0.4184723-0.3630066-0.7814827-0.7814789-0.7814827L121.6592331,44.1663857z"></path>
			<path class="st2" d="M133.9965668,53.0349579c-2.5057831-1.0234909-3.5292664-1.9763947-3.5292664-3.2872696     c0-0.8167763,0.7865143-1.9713554,2.5309906-1.9713554c1.0033112,0,2.5158691,0.5999794,4.1947937,1.6688423     c0.4789886,0.3176346,1.0537415,0.0201683,1.3512115-0.4235115l1.1747437-1.759594     c0.1361237-0.1966324,0.1865387-0.4688911,0.1310883-0.7361069c-0.0504303-0.2470474-0.186554-0.4537659-0.3579712-0.5545998     c-0.4688873-0.3529243-2.9847717-2.1125259-6.3073273-2.1125259c-4.9157715,0-7.1593857,3.1813889-7.1593857,6.1358986     c0,4.003212,3.3880997,5.8333931,5.9392776,6.8669701c2.6671295,1.078949,3.8065643,2.1377296,3.8065643,3.534317     c0,1.2251663-1.1495361,2.1881523-2.6217499,2.1881523c-1.1495361,0-2.7377014-0.6503983-4.4771423-1.8251419     c-0.0453796-0.0302505-0.0756226-0.0504189-0.0806732-0.0504189l0,0     c-0.1966248-0.1512566-0.484024-0.2167969-0.7361069-0.1663818c-0.2571335,0.0504189-0.4688873,0.2067184-0.5999832,0.4386406     l-1.1142426,1.9209366l0,0c-0.3529282,0.6251831-0.1008377,0.8772736,0.1915894,1.1646576     c0.6100616,0.5798111,2.9141693,2.4654541,6.9425812,2.4654541c4.7494202,0,7.3106537-3.2570152,7.3106537-6.3224449     c0-3.9880829-3.3326416-5.8636436-6.5896759-7.1745186H133.9965668z"></path>
			<path class="st2" d="M161.9383698,44.1663857h-2.8486176c-0.4285583,0-0.7814789,0.3529243-0.7814789,0.7814827v8.0064163     h-9.70047v-8.0064163c0-0.4335976-0.3529358-0.7814827-0.7814789-0.7814827h-2.8788757     c-0.4184723,0-0.7814789,0.3630104-0.7814789,0.7814827V65.437851c0,0.4184723,0.3630066,0.7814789,0.7814789,0.7814789     h2.8788757c0.4285583,0,0.7814789-0.3529205,0.7814789-0.7814789v-8.3492622h9.70047v8.3492622     c0,0.4335938,0.3529358,0.7814789,0.7814789,0.7814789h2.8486176c0.4184723,0,0.7814789-0.3630066,0.7814789-0.7814789     V44.9478722C162.7198486,44.5293999,162.3517914,44.1663895,161.9383698,44.1663857z"></path>
			<path class="st2" d="M181.3493958,44.1663857h-12.5944824c-0.4285583,0-0.7814789,0.3529243-0.7814789,0.7814827V65.437851     c0,0.4335938,0.3529358,0.7814789,0.7814789,0.7814789h12.5944824c0.4285583,0,0.7814789-0.3529205,0.7814789-0.7814789     v-2.5360374c0-0.4335976-0.3529358-0.7814865-0.7814789-0.7814865h-8.9643555v-5.0266991h7.4518127     c0.4285583,0,0.7814789-0.3529282,0.7814789-0.7814865v-2.5662842c0-0.4184723-0.3630219-0.7814865-0.7814789-0.7814865     h-7.4518127v-4.6888962h8.9643555c0.4285583,0,0.7814789-0.3529282,0.7814789-0.7814865v-2.5360374     c0-0.4335976-0.3529358-0.7814827-0.7814789-0.7814827V44.1663857z"></path>
			<path class="st2" d="M202.7519531,51.0182266c0-3.7763252-3.1158447-6.8467979-6.9425812-6.8467979h-8.8534546     c-0.4285583,0-0.7814789,0.3529243-0.7814789,0.7814827v20.489975c0,0.4336014,0.3529358,0.7814865,0.7814789,0.7814865     h2.8486328c0.418457,0,0.7814789-0.3630142,0.7814789-0.7814865v-7.6988678h3.1208954l4.0637054,8.0921326     c0.090744,0.1865463,0.317627,0.3882217,0.6705475,0.3882217h3.2519836c0.3025208,0,0.5546112-0.1361313,0.6957855-0.3680496     c0.1411591-0.236969,0.1411591-0.5495605,0-0.8117371l-4.1393433-7.6736565     c2.7830811-1.199955,4.5023499-3.6099472,4.5023499-6.3476562V51.0182266z M198.3403625,51.0787315     c0,1.6083412-1.315918,2.964592-2.8738556,2.964592h-4.850235v-5.7728882h4.850235     C197.0244293,48.2704353,198.3403625,49.5560989,198.3403625,51.0787315z"></path>
			<path class="st2" d="M213.4053192,53.0349579c-2.5057983-1.0234909-3.5292816-1.9763947-3.5292816-3.2872696     c0-0.8167763,0.7865295-1.9713554,2.5309906-1.9713554c1.0033112,0,2.5158691,0.5999794,4.194809,1.6688423     c0.4789734,0.3176346,1.0537262,0.0201683,1.3511963-0.4235115l1.1747437-1.759594     c0.1361237-0.1966324,0.1865387-0.4688911,0.1310883-0.7361069c-0.050415-0.2470474-0.1865387-0.4537659-0.3579712-0.5545998     c-0.4688721-0.3529243-2.9847565-2.1125259-6.3073273-2.1125259c-4.9157715,0-7.1593933,3.1813889-7.1593933,6.1358986     c0,4.003212,3.3881073,5.8333931,5.93927,6.8669701c2.6721649,1.078949,3.8065796,2.1377296,3.8065796,3.534317     c0,1.2251663-1.1495361,2.1881523-2.6217651,2.1881523c-1.1495361,0-2.7427521-0.6503983-4.4771423-1.8251419     c-0.0453644-0.0302505-0.0756226-0.0504189-0.0756226-0.0504189l0,0c-0.19664-0.1512566-0.4789734-0.2167969-0.7360992-0.1663818     c-0.2571411,0.0504189-0.4688873,0.2067184-0.5999756,0.4386406l-1.1142426,1.9209366l0,0     c-0.3529358,0.6251831-0.1008453,0.8772736,0.1915894,1.1646576c0.6100616,0.5798111,2.9141693,2.4654541,6.9425964,2.4654541     c4.7494049,0,7.3106384-3.2570152,7.3106384-6.3224449c0-3.9880829-3.3326416-5.8636436-6.5896759-7.1745186H213.4053192z"></path>
		</g>
	</g>
</g>
</svg>
